HIERARCHY
ROOT Hips
{
	OFFSET 0.000000 0.000000 0.000000
	CHANNELS 6 Xposition Yposition Zposition Zrotation Yrotation Xrotation 
	JOINT LowerBack
	{
		OFFSET 0.000000 0.000000 0.000000
		CHANNELS 3 Zrotation Yrotation Xrotation
		JOINT Spine
		{
			OFFSET 0.028270 2.035590 -0.193380
			CHANNELS 3 Zrotation Yrotation Xrotation
			JOINT Spine1
			{
				OFFSET 0.056720 2.048850 -0.042750
				CHANNELS 3 Zrotation Yrotation Xrotation
				JOINT Neck
				{
					OFFSET 0.000000 0.000000 0.000000
					CHANNELS 3 Zrotation Yrotation Xrotation
					JOINT Neck1
					{
						OFFSET -0.054170 1.746240 0.172020
						CHANNELS 3 Zrotation Yrotation Xrotation
						JOINT Head
						{
							OFFSET 0.104070 1.761360 -0.123970
							CHANNELS 3 Zrotation Yrotation Xrotation
							End Site
							{
								OFFSET 0.000000 0.000000 0.000000
							}
						}
					}
				}
				JOINT LeftShoulder
				{
					OFFSET 0.000000 0.000000 0.000000
					CHANNELS 3 Zrotation Yrotation Xrotation
					JOINT LeftArm
					{
						OFFSET 3.362410 1.200890 -0.311210
						CHANNELS 3 Zrotation Yrotation Xrotation
						JOINT LeftForeArm
						{
							OFFSET 4.983000 -0.000000 -0.000000
							CHANNELS 3 Zrotation Yrotation Xrotation
							JOINT LeftHand
							{
								OFFSET 3.483560 -0.000000 -0.000000
								CHANNELS 3 Zrotation Yrotation Xrotation
								JOINT LeftFingerBase
								{
									OFFSET 0.000000 0.000000 0.000000
									CHANNELS 3 Zrotation Yrotation Xrotation
									JOINT LeftHandIndex1
									{
										OFFSET 0.715260 -0.000000 -0.000000
										CHANNELS 3 Zrotation Yrotation Xrotation
										End Site
										{
											OFFSET 0.000000 0.000000 0.000000
										}
									}
								}
								JOINT LThumb
								{
									OFFSET 0.000000 0.000000 0.000000
									CHANNELS 3 Zrotation Yrotation Xrotation
									End Site
									{
										OFFSET 0.000000 0.000000 0.000000
									}
								}
							}
						}
					}
				}
				JOINT RightShoulder
				{
					OFFSET 0.000000 0.000000 0.000000
					CHANNELS 3 Zrotation Yrotation Xrotation
					JOINT RightArm
					{
						OFFSET -3.136600 1.374050 -0.404650
						CHANNELS 3 Zrotation Yrotation Xrotation
						JOINT RightForeArm
						{
							OFFSET -5.241900 -0.000000 -0.000000
							CHANNELS 3 Zrotation Yrotation Xrotation
							JOINT RightHand
							{
								OFFSET -3.444170 -0.000000 -0.000000
								CHANNELS 3 Zrotation Yrotation Xrotation
								JOINT RightFingerBase
								{
									OFFSET 0.000000 0.000000 0.000000
									CHANNELS 3 Zrotation Yrotation Xrotation
									JOINT RightHandIndex1
									{
										OFFSET -0.622530 -0.000000 -0.000000
										CHANNELS 3 Zrotation Yrotation Xrotation
										End Site
										{
											OFFSET 0.000000 0.000000 0.000000
										}
									}
								}
								JOINT RThumb
								{
									OFFSET 0.000000 0.000000 0.000000
									CHANNELS 3 Zrotation Yrotation Xrotation
									End Site
									{
										OFFSET 0.000000 0.000000 0.000000
									}
								}
							}
						}
					}
				}
			}
		}
	}
}
}
MOTION
Frames: 15
Frame Time: 0.008333
-17.750947 16.113096 -0.417594 -4.158775 86.094829 34.490076 -8.780859 1.527494 4.028043 -3.061443 1.781712 -2.145520 -5.894157 1.694316 0.137117 4.828207 5.675343 2.550017 -3.303563 -0.340957 2.218795 0.000000 0.000000 0.000000 -1.971428 0.787669 3.197876 -42.998772 8.188610 11.293618 -4.107485 -25.235155 -0.007096 -0.940938 2.680526 -0.018432 -0.152600 -0.030124 0.000000 0.000000 0.000000 0.000000 0.000000 0.000000 0.000000 11.186407 8.120430 -1.295021 80.230518 35.838333 35.099825 1.440879 54.669931 0.008317 1.940106 8.793051 0.156267 -0.017800 -0.308499 -0.000000 0.000000 0.000000 0.000000 0.000000 0.000000 0.000000 
-17.575100 15.983071 -0.433714 -3.368429 86.005422 34.933931 -8.982351 1.483287 4.484202 -3.127166 1.731388 -2.084955 -6.019339 1.641978 -0.016876 5.025484 6.126519 2.574198 -3.426915 -0.347241 2.211875 0.000000 0.000000 0.000000 -2.334921 0.272820 3.311838 -42.486936 8.403253 12.065637 -4.155451 -24.978002 -0.007054 -1.113084 2.628139 -0.022036 -0.152042 -0.031402 0.000000 0.000000 0.000000 0.000000 0.000000 0.000000 0.000000 11.993801 8.535820 -1.124323 79.278964 35.868986 34.441273 1.404255 54.691720 0.007863 1.992168 8.863564 0.162149 -0.023068 -0.312503 -0.000000 0.000000 0.000000 0.000000 0.000000 0.000000 0.000000 
-17.401198 15.857294 -0.447192 -1.894709 85.958305 36.032860 -9.196985 1.444117 4.990558 -3.199454 1.684203 -2.012667 -6.159578 1.592754 -0.170476 5.279652 6.641271 2.649336 -3.566472 -0.354714 2.214970 0.000000 0.000000 0.000000 -2.763127 -0.278961 3.428626 -41.874307 8.405590 12.935645 -4.222375 -24.556613 -0.006989 -1.394154 2.533549 -0.027538 -0.152006 -0.032577 0.000000 0.000000 0.000000 0.000000 0.000000 0.000000 0.000000 12.931163 8.977764 -0.956439 78.255635 35.850802 33.545330 1.362455 54.591508 0.007143 2.015230 8.981267 0.166629 -0.028854 -0.316819 -0.000000 0.000000 0.000000 0.000000 0.000000 0.000000 0.000000 
-17.229171 15.738024 -0.458394 0.102597 85.948134 37.639238 -9.411144 1.416472 5.536180 -3.274334 1.646368 -1.931522 -6.310738 1.552594 -0.323584 5.581947 7.210190 2.777941 -3.718311 -0.363147 2.229239 0.000000 0.000000 0.000000 -3.253008 -0.879333 3.546047 -41.192735 8.185206 13.820636 -4.308498 -23.936567 -0.006935 -1.778730 2.408671 -0.034440 -0.152773 -0.033336 0.000000 0.000000 0.000000 0.000000 0.000000 0.000000 0.000000 13.970300 9.434723 -0.795039 77.179041 35.762094 32.396628 1.314423 54.355751 0.006065 1.988213 9.155768 0.168108 -0.034847 -0.321436 -0.000000 0.000000 0.000000 0.000000 0.000000 0.000000 0.000000 
-17.058000 15.627037 -0.467822 2.424339 85.965443 39.566688 -9.609894 1.407161 6.104634 -3.347192 1.624691 -1.846068 -6.467179 1.527924 -0.477432 5.921189 7.818801 2.961372 -3.876884 -0.372231 2.255943 0.000000 0.000000 0.000000 -3.792067 -1.551645 3.661213 -40.496633 7.760799 14.595525 -4.411595 -23.091709 -0.006931 -2.244719 2.278962 -0.041941 -0.154555 -0.033223 0.000000 0.000000 0.000000 0.000000 0.000000 0.000000 0.000000 15.073889 9.892580 -0.642968 76.072039 35.581292 30.992673 1.259127 53.974396 0.004506 1.881908 9.395494 0.163786 -0.040571 -0.326323 -0.000000 0.000000 0.000000 0.000000 0.000000 0.000000 0.000000 
-16.886923 15.525720 -0.476320 4.846520 85.999346 41.606483 -9.774856 1.420687 6.677791 -3.411901 1.624117 -1.757657 -6.620949 1.523851 -0.621285 6.278795 8.447070 3.184555 -4.035550 -0.381368 2.291826 0.000000 0.000000 0.000000 -4.369067 -2.223043 3.769046 -39.829765 7.021821 15.227420 -4.528446 -21.954409 -0.006945 -2.734654 2.167483 -0.049242 -0.157583 -0.031480 0.000000 0.000000 0.000000 0.000000 0.000000 0.000000 0.000000 16.188102 10.331551 -0.511654 74.975115 35.300858 29.345305 1.195250 53.439019 0.002341 1.670366 9.705902 0.150964 -0.045587 -0.331219 -0.000000 0.000000 0.000000 0.000000 0.000000 0.000000 0.000000 
-16.715255 15.434937 -0.484646 7.187564 86.044083 43.590373 -9.891546 1.459260 7.232870 -3.463436 1.647698 -1.672186 -6.765173 1.543120 -0.756746 6.639208 9.076818 3.443934 -4.186900 -0.390161 2.337396 0.000000 0.000000 0.000000 -4.970215 -2.914640 3.865284 -39.253393 6.012360 15.576080 -4.650606 -20.526132 -0.006982 -3.183745 2.120474 -0.056442 -0.161572 -0.027366 0.000000 0.000000 0.000000 0.000000 0.000000 0.000000 0.000000 17.262869 10.738055 -0.403141 73.921434 34.903882 27.469229 1.122053 52.745916 -0.000541 1.323423 10.088824 0.125443 -0.049384 -0.335984 -0.000000 0.000000 0.000000 0.000000 0.000000 0.000000 0.000000 
-16.541871 15.355158 -0.493632 9.316921 86.098925 45.400035 -9.946740 1.521176 7.748306 -3.497110 1.694953 -1.593605 -6.893126 1.585294 -0.880622 6.986424 9.687943 3.728743 -4.323772 -0.398155 2.391148 0.000000 0.000000 0.000000 -5.581066 -3.611801 3.945127 -38.819946 4.733114 15.530812 -4.766362 -18.802290 -0.007018 -3.500982 2.181964 -0.063843 -0.165813 -0.019950 0.000000 0.000000 0.000000 0.000000 0.000000 0.000000 0.000000 18.248060 11.097337 -0.321047 72.948497 34.383781 25.387438 1.039061 51.893802 -0.004233 0.816317 10.542204 0.082822 -0.051542 -0.340371 -0.000000 0.000000 0.000000 0.000000 0.000000 0.000000 0.000000 
-16.366349 15.286498 -0.503953 11.165194 86.168266 46.975272 -9.929772 1.601496 8.204677 -3.509253 1.762372 -1.524726 -6.999304 1.647126 -0.988436 7.306761 10.261429 4.025738 -4.439730 -0.404948 2.450835 0.000000 0.000000 0.000000 -6.186809 -4.291753 4.004026 -38.572264 3.180080 14.990841 -4.859636 -16.792067 -0.007050 -3.574565 2.386055 -0.070947 -0.169009 -0.008334 0.000000 0.000000 0.000000 0.000000 0.000000 0.000000 0.000000 19.099642 11.397183 -0.267355 72.090285 33.742395 23.127094 0.946389 50.883724 -0.008765 0.130875 11.058929 0.018302 -0.051755 -0.344088 -0.000000 0.000000 0.000000 0.000000 0.000000 0.000000 0.000000 
-16.188125 15.228784 -0.516088 12.711521 86.258605 48.302075 -9.833805 1.692047 8.590403 -3.497718 1.843161 -1.463036 -7.079693 1.722800 -1.064966 7.588887 10.776097 4.308422 -4.530465 -0.410081 2.509964 0.000000 0.000000 0.000000 -6.770723 -4.853638 4.035943 -38.531529 1.238533 13.935956 -4.911193 -14.484409 -0.007115 -3.274260 2.731273 -0.073554 -0.169426 0.008193 0.000000 0.000000 0.000000 0.000000 0.000000 0.000000 0.000000 19.783013 11.622929 -0.247867 71.379013 33.004630 20.727151 0.844746 49.716932 -0.014089 -0.741712 11.627432 -0.072518 -0.049846 -0.346705 -0.000000 0.000000 0.000000 0.000000 0.000000 0.000000 0.000000 
-16.006642 15.181757 -0.530233 14.002191 86.378651 49.426445 -9.655933 1.785221 8.892088 -3.462572 1.930569 -1.414017 -7.135735 1.805261 -1.119972 7.830355 11.227334 4.580429 -4.592463 -0.413595 2.570781 0.000000 0.000000 0.000000 -7.331235 -5.380074 4.042852 -38.698930 -0.908193 12.263451 -4.895997 -12.037966 -0.007502 -2.470728 3.200693 -0.063670 -0.164833 0.028876 0.000000 0.000000 0.000000 0.000000 0.000000 0.000000 0.000000 20.285669 11.780988 -0.249861 70.823210 32.166305 18.203280 0.736352 48.400408 -0.020056 -1.798417 12.226637 -0.193238 -0.045786 -0.348110 -0.000000 0.000000 0.000000 0.000000 0.000000 0.000000 0.000000 
-15.821922 15.145116 -0.546373 15.096927 86.533443 50.406529 -9.398117 1.871156 9.112017 -3.405204 2.015184 -1.370337 -7.169003 1.886405 -1.132716 8.027996 11.599096 4.809800 -4.626259 -0.415203 2.624284 0.000000 0.000000 0.000000 -7.861291 -5.730197 4.021819 -39.043809 -3.408951 10.139758 -4.796667 -9.516488 -0.008547 -1.056483 3.696168 -0.028495 -0.153853 0.052346 0.000000 0.000000 0.000000 0.000000 0.000000 0.000000 0.000000 20.602709 11.862457 -0.277251 70.434071 31.275833 15.599987 0.624091 46.938393 -0.026415 -3.023830 12.832317 -0.345058 -0.039646 -0.347850 0.000000 0.000000 0.000000 0.000000 0.000000 0.000000 0.000000 
-15.633922 15.118610 -0.564141 16.098185 86.726258 51.335811 -9.067089 1.942263 9.249663 -3.328569 2.089010 -1.336522 -7.184350 1.957575 -1.118815 8.187119 11.899170 5.009701 -4.633095 -0.415265 2.674524 0.000000 0.000000 0.000000 -8.355796 -6.025820 3.982884 -39.549115 -5.983268 7.628843 -4.602599 -7.216227 -0.010746 1.006066 4.113523 0.040366 -0.136012 0.075427 0.000000 0.000000 0.000000 0.000000 0.000000 0.000000 0.000000 20.752657 11.886169 -0.310231 70.194130 30.334640 12.933182 0.512709 45.341634 -0.032826 -4.386996 13.409003 -0.525978 -0.031630 -0.345921 0.000000 0.000000 0.000000 0.000000 0.000000 0.000000 0.000000 
-15.442982 15.102105 -0.583121 17.106269 86.955881 52.305020 -8.674050 1.991015 9.317914 -3.236084 2.143770 -1.306875 -7.185572 2.011104 -1.069226 8.311936 12.124952 5.165073 -4.618195 -0.413882 2.716517 0.000000 0.000000 0.000000 -8.804901 -6.197494 3.929037 -40.194031 -8.641040 5.044498 -4.327660 -5.320004 -0.014306 3.635979 4.315538 0.138316 -0.113150 0.095265 0.000000 0.000000 0.000000 0.000000 0.000000 0.000000 0.000000 20.760938 11.854466 -0.344852 70.084517 29.386355 10.245044 0.407433 43.618934 -0.038881 -5.844854 13.919802 -0.729597 -0.022008 -0.342046 0.000000 0.000000 0.000000 0.000000 0.000000 0.000000 0.000000 
-15.249369 15.095614 -0.602688 18.242109 87.217874 53.421509 -8.234768 2.013857 9.329239 -3.131575 2.174766 -1.282822 -7.174919 2.041747 -0.997888 8.412820 12.287364 5.290426 -4.586999 -0.411528 2.753739 0.000000 0.000000 0.000000 -9.182005 -6.330549 3.866873 -41.006902 -11.167574 2.573248 -3.999703 -4.065949 -0.018979 6.637437 4.205540 0.240762 -0.088247 0.109570 0.000000 0.000000 0.000000 0.000000 0.000000 0.000000 0.000000 20.666465 11.781469 -0.365416 70.066734 28.442854 7.564167 0.314023 41.786013 -0.044192 -7.342369 14.322454 -0.944911 -0.011162 -0.336208 0.000000 0.000000 0.000000 0.000000 0.000000 0.000000 0.000000 
